<?xml version="1.0" standalone="no"?>
<!DOCTYPE svg PUBLIC "-//W3C//DTD SVG 20010904//EN"
 "http://www.w3.org/TR/2001/REC-SVG-20010904/DTD/svg10.dtd">
<svg version="1.0" xmlns="http://www.w3.org/2000/svg"
 width="120.000000pt" height="120.000000pt" viewBox="0 0 120.000000 120.000000"
 preserveAspectRatio="xMidYMid meet">
<metadata>
Created by potrace 1.11, written by Peter Selinger 2001-2013
</metadata>
<g transform="translate(0.000000,120.000000) scale(0.100000,-0.100000)"
fill="#000000" stroke="none">
<path d="M460 1164 c-166 -43 -320 -164 -392 -309 -50 -99 -62 -154 -62 -265
0 -134 7 -166 56 -270 55 -114 159 -220 269 -274 103 -51 113 -48 117 35 l3
66 -59 0 c-75 0 -113 22 -146 82 -13 25 -38 59 -55 75 -17 16 -28 33 -25 37 8
14 59 -2 87 -28 26 -26 38 -51 17 -38 -6 3 -10 1 -10 -5 0 -7 5 -10 12 -8 7 3
28 -6 47 -19 61 -41 118 -29 147 32 l20 43 -46 6 c-56 8 -141 56 -170 96 -56
79 -66 211 -24 300 20 42 27 70 26 119 0 35 2 70 5 78 8 21 55 15 117 -16 53
-28 61 -29 114 -20 66 11 151 9 202 -3 30 -8 44 -5 94 21 61 33 110 40 119 18
3 -8 5 -43 5 -78 0 -49 6 -77 27 -123 24 -52 27 -67 23 -135 -6 -100 -35 -162
-95 -205 -44 -31 -110 -56 -149 -56 l-22 0 19 -37 c15 -30 19 -59 19 -150 0
-131 4 -136 75 -109 153 59 290 206 346 375 29 83 34 220 14 312 -20 84 -85
213 -136 266 -85 90 -154 135 -269 175 -72 26 -243 32 -320 12z"/>
<path d="M215 320 c3 -5 8 -10 11 -10 2 0 4 5 4 10 0 6 -5 10 -11 10 -5 0 -7
-4 -4 -10z"/>
<path d="M290 230 c0 -5 5 -10 10 -10 6 0 10 5 10 10 0 6 -4 10 -10 10 -5 0
-10 -4 -10 -10z"/>
<path d="M330 210 c0 -5 5 -10 10 -10 6 0 10 5 10 10 0 6 -4 10 -10 10 -5 0
-10 -4 -10 -10z"/>
<path d="M425 210 c-3 -5 1 -10 10 -10 9 0 13 5 10 10 -3 6 -8 10 -10 10 -2 0
-7 -4 -10 -10z"/>
<path d="M380 200 c0 -5 5 -10 10 -10 6 0 10 5 10 10 0 6 -4 10 -10 10 -5 0
-10 -4 -10 -10z"/>
</g>
</svg>
